<?xml version="1.0" encoding="utf-8"?>
<!-- Generator: Adobe Illustrator 24.3.0, SVG Export Plug-In . SVG Version: 6.00 Build 0)  -->
<svg version="1.1" id="Layer_1" xmlns="http://www.w3.org/2000/svg" xmlns:xlink="http://www.w3.org/1999/xlink" x="0px" y="0px"
	 viewBox="0 0 93 74" style="enable-background:new 0 0 93 74;" xml:space="preserve">
<style type="text/css">
	.st0{fill-rule:evenodd;clip-rule:evenodd;fill:#FFFFFF;}
	.st1{fill:#FFFFFF;}
</style>
<g>
	<path class="st0" d="M70.76,61.91c0.81,1.2,0.5,3.63-0.72,4.72c-1.51,1.34-3.15-1.6-2.75-3.81C67.59,61.15,69.92,60.66,70.76,61.91
		L70.76,61.91z M65.48,63.79c0.26,2.34,2.79,3.99,3.77,3.95c0.95-0.03,3.46-1.44,3.78-3.93C73.72,58.4,64.86,58.35,65.48,63.79z"/>
	<path class="st0" d="M80.27,61.72c0.9-0.24,1.99-0.75,3.02-0.39c0.85,0.3,1.11,1.6,0.43,2.4c-0.84,1.01-2.5,1.81-3.79,2.63
		l0.15,1.24l5.74-0.05c0.21-0.44,0.31-0.87,0.27-1.37l-4.66-0.03c0.14-0.4,3.27-0.63,4.18-2.76c1.55-3.61-3.1-4.3-4.84-3.07
		L80.27,61.72z"/>
	<polygon class="st0" points="68.26,63.73 69.28,64.66 70.31,63.72 69.28,62.79 	"/>
	<path class="st0" d="M73.56,61.72c0.9-0.24,1.99-0.75,3.02-0.39c0.85,0.3,1.11,1.6,0.43,2.4c-0.84,1.01-2.5,1.81-3.79,2.63
		l0.15,1.24l5.74-0.05c0.21-0.44,0.31-0.87,0.27-1.37l-4.66-0.03c0.14-0.4,3.27-0.63,4.18-2.76c1.55-3.61-3.1-4.3-4.84-3.07
		L73.56,61.72z"/>
	<path class="st0" d="M58.98,61.72c0.9-0.24,1.99-0.75,3.02-0.39c0.85,0.3,1.11,1.6,0.43,2.4c-0.84,1.01-2.5,1.81-3.79,2.63
		l0.15,1.24l5.74-0.05c0.21-0.44,0.31-0.87,0.27-1.37l-4.66-0.03c0.14-0.4,3.27-0.63,4.18-2.76c1.55-3.61-3.1-4.3-4.84-3.07
		L58.98,61.72z"/>
</g>
<g>
	<g>
		<polygon class="st0" points="15,17.25 18.03,20.03 21.11,17.2 18.02,14.44 		"/>
		<g>
			<path class="st1" d="M6.87,18.43c0-2.13,0.28-3.97,0.83-5.5s1.33-2.79,2.31-3.77c0.99-0.99,2.17-1.72,3.56-2.19
				s2.92-0.71,4.59-0.71c1.81,0,3.4,0.27,4.78,0.82c1.38,0.55,2.53,1.3,3.46,2.28c0.93,0.97,1.63,2.12,2.1,3.44
				c0.47,1.32,0.71,2.77,0.71,4.35c0,3.01-0.71,5.48-2.14,7.39s-3.34,3.28-5.76,4.09L26.14,31c1.07,0.53,1.77,1.31,2.12,2.33
				c0.35,1.02,0.14,2.4-0.63,4.14l-12.7-6.37c-1.76-0.86-3.17-1.75-4.23-2.68s-1.87-1.91-2.45-2.96c-0.58-1.04-0.96-2.14-1.15-3.3
				C6.97,20.99,6.87,19.75,6.87,18.43z M17.41,26.7l1.5,0.77c0.7-0.63,1.32-1.24,1.86-1.84s1-1.25,1.37-1.93s0.65-1.45,0.85-2.3
				c0.2-0.85,0.3-1.84,0.3-2.97c0-2.53-0.45-4.39-1.36-5.6c-0.9-1.21-2.19-1.81-3.86-1.81s-2.96,0.6-3.88,1.81s-1.37,3.07-1.37,5.6
				c0,1.16,0.09,2.16,0.28,2.99s0.47,1.57,0.85,2.19c0.38,0.63,0.86,1.18,1.43,1.67C15.95,25.76,16.62,26.24,17.41,26.7z"/>
			<path class="st1" d="M36.92,6.6l4.14,17.81h0.17L45.51,6.6h5.63l4.38,17.84h0.17l3.5-17.84h5.7l-3.9,18.43
				c-0.23,1.11-0.5,2.02-0.82,2.73c-0.31,0.71-0.7,1.26-1.15,1.65s-1,0.66-1.63,0.8c-0.64,0.14-1.4,0.21-2.28,0.21h-3.55
				l-3.34-13.46l-2.02,8.07c-0.26,1.11-0.55,2.02-0.87,2.73s-0.72,1.26-1.2,1.65s-1.03,0.66-1.67,0.8s-1.4,0.21-2.28,0.21h-3.41
				L30.94,6.6H36.92z"/>
			<path class="st1" d="M66.8,18.43c0-2.06,0.28-3.86,0.83-5.39c0.56-1.53,1.36-2.8,2.4-3.81s2.31-1.76,3.81-2.24
				c1.5-0.49,3.18-0.73,5.06-0.73c0.56,0,1.13,0.02,1.72,0.05c0.59,0.03,1.17,0.09,1.74,0.16s1.11,0.15,1.62,0.23
				s0.94,0.17,1.29,0.26c0,0.32-0.02,0.71-0.05,1.15c-0.03,0.44-0.08,0.88-0.14,1.32s-0.13,0.86-0.21,1.25s-0.17,0.72-0.26,0.97
				c-0.28-0.07-0.65-0.14-1.11-0.23c-0.46-0.08-0.96-0.15-1.5-0.21c-0.53-0.06-1.07-0.1-1.62-0.14c-0.55-0.03-1.04-0.05-1.48-0.05
				c-2.04,0-3.58,0.63-4.61,1.88s-1.55,3.1-1.55,5.53s0.52,4.28,1.55,5.53c1.03,1.25,2.57,1.88,4.61,1.88
				c0.56,0,1.14-0.02,1.74-0.05c0.6-0.03,1.19-0.08,1.77-0.14c0.58-0.06,1.11-0.12,1.6-0.19s0.9-0.15,1.25-0.24
				c0,0.3-0.02,0.67-0.05,1.11c-0.03,0.44-0.08,0.89-0.14,1.34s-0.13,0.88-0.21,1.27s-0.17,0.72-0.26,0.97
				c-0.3,0.09-0.68,0.18-1.13,0.26S82.52,30.33,82,30.4s-1.06,0.12-1.6,0.16c-0.55,0.03-1.05,0.05-1.51,0.05
				c-1.88,0-3.57-0.24-5.06-0.73c-1.5-0.49-2.77-1.23-3.81-2.24s-1.84-2.28-2.4-3.81C67.08,22.29,66.8,20.49,66.8,18.43z"/>
		</g>
	</g>
	<g>
		<path class="st1" d="M12.76,37.89c0.69,0,1.28,0.07,1.75,0.2s0.88,0.34,1.2,0.62c0.33,0.28,0.59,0.63,0.79,1.05
			s0.37,0.92,0.52,1.49l3.86,11.08h0.11V37.89h4.19v19.48h-7.45l-5.04-14.41h-0.11v14.41H8.42V37.89H12.76z"/>
		<path class="st1" d="M29.02,57.37V37.89h13.44c0,0.25-0.01,0.56-0.03,0.93s-0.04,0.75-0.07,1.15c-0.03,0.39-0.07,0.77-0.12,1.13
			s-0.13,0.67-0.22,0.92h-8.43v3.49h7.64c0,0.21,0,0.5-0.01,0.86s-0.03,0.74-0.07,1.13s-0.08,0.78-0.14,1.16
			c-0.06,0.38-0.13,0.71-0.22,0.97h-7.2v3.61h8.87c0,0.25-0.01,0.56-0.03,0.93s-0.04,0.75-0.07,1.15c-0.03,0.39-0.07,0.77-0.12,1.13
			s-0.13,0.67-0.22,0.92C42.01,57.37,29.02,57.37,29.02,57.37z"/>
		<path class="st1" d="M48.41,37.89l3.26,14.66h0.14l3.37-14.66h4.44l3.45,14.69h0.14l2.76-14.69h4.49l-3.07,15.18
			c-0.18,0.92-0.4,1.67-0.64,2.25c-0.25,0.58-0.55,1.04-0.9,1.36c-0.36,0.32-0.79,0.54-1.29,0.66c-0.5,0.11-1.1,0.17-1.79,0.17
			h-2.79l-2.63-11.08l-1.59,6.64c-0.2,0.92-0.43,1.67-0.68,2.25c-0.26,0.58-0.57,1.04-0.94,1.36s-0.81,0.54-1.31,0.66
			c-0.5,0.11-1.1,0.17-1.79,0.17h-2.68l-4.63-19.62H48.41z"/>
		<path class="st1" d="M77.65,53.73c0.8,0,1.46-0.05,1.96-0.14c0.5-0.1,0.89-0.23,1.18-0.41c0.28-0.18,0.48-0.4,0.59-0.65
			c0.11-0.25,0.16-0.51,0.16-0.8c0-0.42-0.14-0.75-0.41-0.97s-0.63-0.42-1.08-0.57c-0.45-0.15-0.96-0.28-1.53-0.39
			c-0.58-0.11-1.16-0.23-1.75-0.37s-1.18-0.33-1.75-0.57c-0.58-0.24-1.09-0.57-1.53-0.99c-0.45-0.42-0.81-0.95-1.08-1.59
			C72.14,45.64,72,44.84,72,43.89c0-1.16,0.2-2.14,0.59-2.94c0.39-0.79,0.95-1.44,1.66-1.93c0.71-0.5,1.57-0.85,2.59-1.07
			c1.01-0.22,2.14-0.33,3.38-0.33c0.93,0,1.83,0.06,2.7,0.19c0.87,0.12,1.62,0.29,2.26,0.5c0,0.67-0.05,1.38-0.15,2.13
			c-0.1,0.76-0.26,1.35-0.48,1.79c-0.77-0.23-1.54-0.4-2.31-0.51c-0.78-0.12-1.52-0.17-2.23-0.17c-1.24,0-2.12,0.15-2.64,0.44
			c-0.52,0.3-0.78,0.74-0.78,1.33c0,0.52,0.24,0.9,0.71,1.15s1.06,0.46,1.76,0.63c0.7,0.17,1.47,0.35,2.3,0.54s1.6,0.49,2.3,0.9
			c0.7,0.41,1.29,0.98,1.77,1.72c0.47,0.74,0.71,1.72,0.71,2.96c0,1.15-0.2,2.12-0.6,2.94c-0.4,0.81-0.97,1.48-1.7,2.01
			c-0.73,0.52-1.6,0.91-2.62,1.15c-1.01,0.24-2.14,0.36-3.38,0.36c-0.46,0-0.96-0.01-1.52-0.04s-1.1-0.07-1.62-0.13
			c-0.52-0.06-0.99-0.13-1.42-0.21c-0.43-0.09-0.74-0.19-0.94-0.3c-0.07-0.27-0.15-0.57-0.22-0.9s-0.13-0.68-0.18-1.05
			c-0.05-0.36-0.09-0.72-0.12-1.07c-0.04-0.35-0.06-0.68-0.08-0.99c0.31,0.1,0.7,0.19,1.18,0.29c0.47,0.1,0.98,0.18,1.51,0.24
			c0.53,0.07,1.08,0.13,1.64,0.17C76.6,53.71,77.14,53.73,77.65,53.73z"/>
	</g>
</g>
</svg>
